<svg xmlns="http://www.w3.org/2000/svg" viewBox="0 0 800 400" width="800" height="400">
  <defs>
    <linearGradient id="bg" x1="0%" y1="0%" x2="100%" y2="100%">
      <stop offset="0%" style="stop-color:#0f2a35"/>
      <stop offset="50%" style="stop-color:#1a6b5a"/>
      <stop offset="100%" style="stop-color:#134d41"/>
    </linearGradient>
    <linearGradient id="accent" x1="0%" y1="0%" x2="100%" y2="0%">
      <stop offset="0%" style="stop-color:#c9a84c"/>
      <stop offset="100%" style="stop-color:#2d9980"/>
    </linearGradient>
  </defs>
  <rect width="800" height="400" fill="url(#bg)"/>
  <!-- Grid -->
  <g opacity="0.05" stroke="#fff" stroke-width="1">
    <line x1="0" y1="80" x2="800" y2="80"/><line x1="0" y1="160" x2="800" y2="160"/>
    <line x1="0" y1="240" x2="800" y2="240"/><line x1="0" y1="320" x2="800" y2="320"/>
    <line x1="160" y1="0" x2="160" y2="400"/><line x1="320" y1="0" x2="320" y2="400"/>
    <line x1="480" y1="0" x2="480" y2="400"/><line x1="640" y1="0" x2="640" y2="400"/>
  </g>
  <!-- Decorative circles -->
  <circle cx="680" cy="80" r="120" fill="#c9a84c" opacity="0.06"/>
  <circle cx="100" cy="320" r="80" fill="#2d9980" opacity="0.08"/>
  <!-- Signal/broadcast icon (center-left) -->
  <g transform="translate(200,200)" opacity="0.85">
    <circle cx="0" cy="0" r="14" fill="#2d9980"/>
    <path d="M-40,-40 A56,56 0 0,1 40,-40" fill="none" stroke="#2d9980" stroke-width="4" stroke-linecap="round" opacity="0.6"/>
    <path d="M-60,-60 A84,84 0 0,1 60,-60" fill="none" stroke="#2d9980" stroke-width="3" stroke-linecap="round" opacity="0.35"/>
    <path d="M-80,-80 A112,112 0 0,1 80,-80" fill="none" stroke="#2d9980" stroke-width="2" stroke-linecap="round" opacity="0.18"/>
  </g>
  <!-- Newspaper lines (right side) -->
  <g transform="translate(420,110)" opacity="0.7">
    <rect x="0" y="0" width="200" height="180" rx="6" fill="rgba(255,255,255,0.05)" stroke="rgba(255,255,255,0.15)" stroke-width="1"/>
    <rect x="14" y="16" width="172" height="18" rx="3" fill="rgba(201,168,76,0.4)"/>
    <rect x="14" y="46" width="80" height="8" rx="2" fill="rgba(255,255,255,0.2)"/>
    <rect x="14" y="62" width="120" height="8" rx="2" fill="rgba(255,255,255,0.15)"/>
    <rect x="14" y="78" width="100" height="8" rx="2" fill="rgba(255,255,255,0.15)"/>
    <line x1="14" y1="102" x2="186" y2="102" stroke="rgba(255,255,255,0.1)" stroke-width="1"/>
    <rect x="14" y="114" width="80" height="8" rx="2" fill="rgba(255,255,255,0.15)"/>
    <rect x="14" y="130" width="110" height="8" rx="2" fill="rgba(255,255,255,0.12)"/>
    <rect x="14" y="146" width="90" height="8" rx="2" fill="rgba(255,255,255,0.12)"/>
  </g>
  <!-- Title text -->
  <text x="60" y="290" font-family="Georgia, serif" font-size="38" font-weight="bold" fill="#fff" opacity="0.95">Bioinformatics</text>
  <text x="60" y="335" font-family="Georgia, serif" font-size="24" fill="url(#accent)" opacity="0.9">Weekly News</text>
  <!-- Accent bar -->
  <rect x="60" y="355" width="240" height="3" rx="2" fill="url(#accent)" opacity="0.7"/>
</svg>
